<svg width="205" height="45" viewBox="0 0 205 45" fill="none" xmlns="http://www.w3.org/2000/svg">
<path d="M10.4517 44.8002C13.7345 44.8002 16.0835 44.121 17.4985 42.7626C18.9135 41.4041 19.621 39.1401 19.621 35.9705C19.621 32.716 19.055 30.4237 17.8947 29.037C16.7344 27.6786 14.6967 26.5749 11.7535 25.7825C9.60273 25.1599 8.04622 24.509 7.11232 23.8298C6.17841 23.1506 5.69731 21.7639 5.69731 19.6131C5.69731 17.915 6.06521 16.5566 6.77271 15.4529C7.48022 14.3775 8.64052 13.8398 10.2536 13.8398C11.895 13.8398 13.0836 14.4907 13.8477 15.7642C14.5835 17.0377 15.0363 19.2452 15.1212 22.3865L19.4512 21.6224C19.2531 17.4905 18.4607 14.6039 17.1023 12.9908C15.7439 11.3494 13.4798 10.557 10.2819 10.557C7.08402 10.557 4.73511 11.3494 3.2635 12.9059C1.79189 14.4907 1.05609 16.7264 1.05609 19.5848C1.05609 22.7827 1.62209 24.9901 2.7541 26.207C3.8861 27.4239 5.92371 28.4144 8.83862 29.2068C11.1026 29.8577 12.6874 30.6218 13.593 31.4708C14.4986 32.2915 14.9514 33.8763 14.9514 36.2252C14.9514 37.9798 14.6118 39.3099 13.9609 40.1872C13.2817 41.0645 12.0931 41.489 10.3951 41.489C8.81032 41.489 7.62172 40.923 6.77271 39.7627C5.92371 38.6024 5.47091 36.2535 5.35771 32.6877L0.971191 33.4518C1.19759 38.0081 2.0466 41.0362 3.5465 42.5361C5.01811 44.0644 7.33872 44.8002 10.4517 44.8002Z" fill="#050505"/>
<path d="M32.394 44.8285C38.2239 44.8285 41.3369 41.6022 41.6199 33.1688L37.2334 32.4613C37.0919 38.7439 35.1675 41.5456 32.4223 41.5456C30.6677 41.5456 29.3942 40.4702 28.5735 38.2911C27.8377 36.3667 27.4415 33.3386 27.3566 29.1502H41.8746C41.9029 28.6691 41.9312 28.1314 41.9312 27.5654C41.9312 21.7639 41.3652 17.4905 40.2898 14.6888C39.1861 11.9154 36.5542 10.5004 32.394 10.5004C28.2905 10.5004 25.6586 11.9154 24.4983 14.7454C23.3663 17.5754 22.772 21.8771 22.772 27.7069C22.772 32.9424 23.338 37.1025 24.47 40.1872C25.602 43.2719 28.2339 44.8285 32.394 44.8285ZM27.3566 26.1221C27.4132 21.4809 27.8377 18.3113 28.6018 16.6132C29.4508 14.7171 30.7243 13.7832 32.394 13.7832C34.0921 13.7832 35.3373 14.7171 36.1297 16.5566C36.8938 18.3113 37.29 21.5092 37.3183 26.1221H27.3566Z" fill="#050505"/>
<path d="M60.072 44.5738H63.9491V25.2165C63.9491 20.6602 63.468 17.066 62.4492 14.4624C61.4587 11.8305 58.8834 10.5004 54.7516 10.5004C48.4689 10.5004 45.7804 13.8681 45.4974 21.7356L50.1387 22.3865C50.2802 16.6698 52.0348 13.8398 54.8082 13.8398C56.4213 13.8398 57.5816 14.6322 58.2608 16.217C58.9683 17.7735 59.3079 20.2074 59.3079 23.4902V24.8486H53.7045C50.4217 24.8486 48.1859 25.641 47.0256 27.1975C45.837 28.7823 45.2427 31.1878 45.2427 34.4989C45.2427 37.9515 45.8653 40.5268 47.0822 42.2531C48.3274 43.9795 50.2802 44.8285 52.9404 44.8285C55.6289 44.8285 57.6099 44.2625 58.9117 43.0738C59.1664 42.8475 59.3928 42.621 59.5909 42.3663L60.072 44.5738ZM59.3079 37.8949C59.3079 38.8571 58.8268 39.7344 57.8929 40.4702C56.9307 41.2343 55.7138 41.6022 54.2139 41.6022C52.6291 41.6022 51.5537 40.923 50.9311 39.5929C50.3085 38.2345 49.9972 36.5365 49.9972 34.4423C49.9972 32.2349 50.3368 30.6218 51.016 29.5464C51.6952 28.471 53.0536 27.9333 55.0912 27.9333H59.3079V37.8949Z" fill="#050505"/>
<path d="M80.6789 26.5466H85.2918C85.2918 20.9998 84.9239 16.9528 84.1881 14.3775C83.4523 11.8022 81.6411 10.5287 78.8111 10.5287C76.4056 10.5287 74.4246 11.3211 72.9247 12.8776C72.6983 13.1323 72.5002 13.387 72.3021 13.6417L72.1323 10.84H67.8589V44.5738H72.4719V19.7263C72.5285 18.4245 72.9247 17.1509 73.6605 15.9057C74.4812 14.5756 75.6132 13.8964 77.0282 13.8964C78.3583 13.8964 79.2922 14.7454 79.8299 16.4434C80.3959 18.1131 80.6789 21.5092 80.6789 26.5466Z" fill="#050505"/>
<path d="M97.5011 44.8285C101.435 44.8285 103.897 43.3852 104.887 40.4985C105.878 37.6402 106.416 34.7536 106.501 31.8953L102.114 31.1029C102.086 33.9329 101.718 36.3667 100.982 38.4043C100.275 40.4419 99.1142 41.4607 97.5011 41.4607C95.888 41.4607 94.6711 40.3853 93.8221 38.2345C93.0014 36.0837 92.5769 32.6028 92.5769 27.7352C92.5769 22.3016 93.0014 18.6226 93.8221 16.7264C94.6428 14.8586 95.8597 13.8964 97.5011 13.8964C99.1142 13.8964 100.275 14.802 100.982 16.5849C101.718 18.3678 102.086 20.9715 102.114 24.3392L106.501 23.6034C106.416 20.1508 105.878 17.0943 104.887 14.4624C103.897 11.8305 101.435 10.5287 97.5011 10.5287C93.3693 10.5287 90.7374 11.9154 89.6054 14.7454C88.4734 17.5754 87.9074 21.9054 87.9074 27.7352C87.9074 33.0273 88.4734 37.1874 89.6054 40.2438C90.7374 43.3003 93.3693 44.8285 97.5011 44.8285Z" fill="#050505"/>
<path d="M110.309 44.5738H114.922V20.0376C115.064 18.4811 115.488 17.1509 116.252 15.9906C117.158 14.5756 118.29 13.8964 119.676 13.8964C121.12 13.8964 122.139 14.6322 122.761 16.1604C123.384 17.6886 123.723 20.3206 123.723 24.0845V44.5738H128.308V24.0562C128.308 20.0093 127.883 16.7264 127.063 14.236C126.214 11.7456 124.374 10.5004 121.488 10.5004C118.856 10.5004 116.733 11.4626 115.12 13.387C115.035 13.4719 114.979 13.5568 114.922 13.6134V0.142578H110.309V44.5738Z" fill="#050505"/>
<path d="M141.057 44.8285C144.99 44.8285 147.453 43.3852 148.443 40.4985C149.434 37.6402 149.971 34.7536 150.056 31.8953L145.67 31.1029C145.641 33.9329 145.273 36.3667 144.538 38.4043C143.83 40.4419 142.67 41.4607 141.057 41.4607C139.444 41.4607 138.227 40.3853 137.378 38.2345C136.557 36.0837 136.133 32.6028 136.133 27.7352C136.133 22.3016 136.557 18.6226 137.378 16.7264C138.198 14.8586 139.415 13.8964 141.057 13.8964C142.67 13.8964 143.83 14.802 144.538 16.5849C145.273 18.3678 145.641 20.9715 145.67 24.3392L150.056 23.6034C149.971 20.1508 149.434 17.0943 148.443 14.4624C147.453 11.8305 144.99 10.5287 141.057 10.5287C136.925 10.5287 134.293 11.9154 133.161 14.7454C132.029 17.5754 131.463 21.9054 131.463 27.7352C131.463 33.0273 132.029 37.1874 133.161 40.2438C134.293 43.3003 136.925 44.8285 141.057 44.8285Z" fill="#050505"/>
<path d="M163.006 44.8002C167.138 44.8002 169.769 43.4701 170.93 40.7532C172.09 38.0647 172.684 33.6782 172.684 27.6503C172.684 21.5941 172.09 17.2358 170.93 14.519C169.769 11.8305 167.138 10.4721 163.006 10.4721C158.902 10.4721 156.27 11.8305 155.082 14.519C153.921 17.2358 153.355 21.5941 153.355 27.6503C153.355 33.6782 153.921 38.0647 155.082 40.7532C156.27 43.4701 158.902 44.8002 163.006 44.8002ZM163.006 41.4607C161.336 41.4607 160.062 40.5551 159.213 38.7439C158.393 36.9327 157.968 33.2537 157.968 27.6503C157.968 22.0752 158.393 18.3678 159.213 16.5566C160.062 14.7171 161.336 13.8115 163.006 13.8115C164.704 13.8115 165.977 14.7171 166.798 16.5566C167.647 18.3678 168.043 22.0752 168.043 27.6503C168.043 33.2537 167.647 36.9327 166.798 38.7439C165.977 40.5551 164.704 41.4607 163.006 41.4607Z" fill="#050505"/>
<path d="M179.514 44.5738H186.335L190.127 16.6415L193.891 44.5738H200.683L204.815 10.84H200.06L197.23 41.2909L192.844 10.84H187.354L182.995 41.3192L180.109 10.84H175.354L179.514 44.5738Z" fill="#050505"/>
</svg>
