<svg width="87" height="87" viewBox="0 0 87 87" fill="none" xmlns="http://www.w3.org/2000/svg">
<path fill-rule="evenodd" clip-rule="evenodd" d="M15.8129 0C7.07967 0 0 6.9533 0 15.5305V86.9711H71.1581C79.8914 86.9711 86.9711 80.0178 86.9711 71.4405V15.5305C86.9711 6.9533 79.8914 0 71.1581 0H15.8129ZM71.1581 4.65916H45.0668V25.6254H35.5791V35.7203H11.8597V12.4244H30.8352V17.0836H16.6036V31.0611H30.8352V20.9662H40.323V4.65916H15.8129C9.69965 4.65916 4.74388 9.52649 4.74388 15.5305V40.3794H25.3007V53.5804H16.6036V82.3119H30.8352V40.3794H50.6014V11.6479H74.3207V20.9662H82.2272V15.5305C82.2272 9.52649 77.2714 4.65916 71.1581 4.65916ZM4.74388 82.3119V45.0386H20.5568V48.9212H11.8597V82.3119H4.74388ZM71.075 82.3119H35.5791V45.0386H55.3452V16.3071H69.5769V25.6254H82.2272V71.4405C82.2272 75.8218 79.5885 79.5975 75.7868 81.3187L75.031 59.7926H60.0891V68.3344H45.8575V64.4518H54.5546V54.3569H75.1114V41.156H64.833V25.6254H60.0891V45.8151H70.3675V49.6978H49.8107V59.7926H41.1136V72.9936H64.833V64.4518H70.4479L71.075 82.3119Z" fill="#1AC94B"/>
</svg>
