<svg width="46" height="52" viewBox="0 0 46 52" fill="none" xmlns="http://www.w3.org/2000/svg">
<path d="M25.8332 0.5C15.2082 0.5 6.56649 8.83 6.05649 19.3133L0.616495 26.5667C-0.0918387 27.5017 0.588161 28.8333 1.74983 28.8333H5.99983V37.3333C5.99983 40.45 8.54983 43 11.6665 43H14.4998V51.5H34.3332V38.24C41.0198 35.0667 45.6665 28.2383 45.6665 20.3333C45.6665 9.36833 36.7982 0.5 25.8332 0.5ZM34.3332 20.3333C34.3332 20.7017 34.3048 21.07 34.2765 21.4383L36.6282 23.3083C36.8548 23.4783 36.9115 23.7617 36.7698 24.0167L34.5032 27.955C34.3615 28.21 34.0498 28.295 33.8232 28.21L31.0182 27.0767C30.4232 27.53 29.7998 27.8983 29.1198 28.1817L28.6665 31.185C28.6382 31.4683 28.3832 31.6667 28.0998 31.6667H23.5665C23.2832 31.6667 23.0565 31.4683 22.9998 31.185L22.5748 28.1817C21.8665 27.8983 21.2432 27.53 20.6482 27.0767L17.8432 28.21C17.5882 28.295 17.2765 28.21 17.1348 27.955L14.8682 24.0167C14.7265 23.79 14.7832 23.4783 15.0098 23.3083L17.3898 21.4383C17.3615 21.07 17.3332 20.7017 17.3332 20.3333C17.3332 19.965 17.3898 19.5683 17.4465 19.2283L15.0382 17.3583C14.8115 17.1883 14.7548 16.905 14.8965 16.6217L17.1632 12.7117C17.3048 12.4567 17.5882 12.3717 17.8432 12.4567L20.6765 13.59C21.2432 13.165 21.8948 12.7683 22.5748 12.485L22.9998 9.48167C23.0565 9.19833 23.2832 9 23.5665 9H28.0998C28.3832 9 28.6098 9.19833 28.6665 9.48167L29.0915 12.485C29.7715 12.7683 30.3948 13.1367 30.9898 13.59L33.8232 12.4567C34.0782 12.3717 34.3898 12.4567 34.5032 12.7117L36.7698 16.6217C36.9115 16.8767 36.8548 17.1883 36.6282 17.3583L34.2198 19.2283C34.3048 19.5683 34.3332 19.9367 34.3332 20.3333Z" fill="#1AC94B"/>
</svg>
