<svg width="58" height="58" viewBox="0 0 58 58" fill="none" xmlns="http://www.w3.org/2000/svg">
<path d="M42.0585 31.8334C44.1835 31.8334 46.0535 30.6717 47.0168 28.915L57.1602 10.5267C58.2085 8.65669 56.8485 6.33335 54.6952 6.33335H12.7618L10.0985 0.666687H0.833496V6.33335H6.50016L16.7002 27.8384L12.8752 34.7517C10.8068 38.5484 13.5268 43.1667 17.8335 43.1667H51.8335V37.5H17.8335L20.9502 31.8334H42.0585ZM15.4535 12H49.8785L42.0585 26.1667H22.1685L15.4535 12ZM17.8335 46C14.7168 46 12.1952 48.55 12.1952 51.6667C12.1952 54.7834 14.7168 57.3334 17.8335 57.3334C20.9502 57.3334 23.5002 54.7834 23.5002 51.6667C23.5002 48.55 20.9502 46 17.8335 46ZM46.1668 46C43.0502 46 40.5285 48.55 40.5285 51.6667C40.5285 54.7834 43.0502 57.3334 46.1668 57.3334C49.2835 57.3334 51.8335 54.7834 51.8335 51.6667C51.8335 48.55 49.2835 46 46.1668 46Z" fill="#1AC94B"/>
</svg>
