<svg width="64" height="64" viewBox="0 0 64 64" fill="none" xmlns="http://www.w3.org/2000/svg">
<path d="M61.5513 28.0049L36.023 2.47652C33.898 0.351524 30.158 0.323191 28.0047 2.47652L2.50467 27.9765C0.294668 30.1865 0.294668 33.7565 2.50467 35.9665L28.0047 61.4665C29.1097 62.5715 30.5547 63.1099 31.9997 63.1099C33.4447 63.1099 34.8897 62.5715 35.9947 61.4665L61.4663 35.9949C63.7047 33.8415 63.733 30.2715 61.5513 28.0049ZM32.028 57.4715L6.528 31.9715L32.028 6.47152L57.528 31.9715L32.028 57.4715ZM20.6663 29.1665V40.4999H26.333V31.9999H37.6663V39.0832L47.583 29.1665L37.6663 19.2499V26.3332H23.4997C21.9413 26.3332 20.6663 27.6082 20.6663 29.1665Z" fill="#1AC94B"/>
</svg>
