<svg width="204" height="45" viewBox="0 0 204 45" fill="none" xmlns="http://www.w3.org/2000/svg">
<path d="M9.63703 44.8002C12.9198 44.8002 15.2688 44.121 16.6838 42.7626C18.0988 41.4041 18.8063 39.1401 18.8063 35.9705C18.8063 32.716 18.2403 30.4237 17.08 29.037C15.9197 27.6786 13.882 26.5749 10.9388 25.7825C8.78803 25.1599 7.23152 24.509 6.29762 23.8298C5.36372 23.1506 4.88261 21.7639 4.88261 19.6131C4.88261 17.915 5.25051 16.5566 5.95802 15.4529C6.66552 14.3775 7.82582 13.8398 9.43893 13.8398C11.0803 13.8398 12.2689 14.4907 13.033 15.7642C13.7688 17.0377 14.2216 19.2452 14.3066 22.3865L18.6365 21.6224C18.4384 17.4905 17.646 14.6039 16.2876 12.9908C14.9292 11.3494 12.6651 10.557 9.46723 10.557C6.26932 10.557 3.92041 11.3494 2.4488 12.9059C0.977197 14.4907 0.241395 16.7264 0.241395 19.5848C0.241395 22.7827 0.807397 24.9901 1.9394 26.207C3.07141 27.4239 5.10901 28.4144 8.02393 29.2068C10.2879 29.8577 11.8727 30.6218 12.7783 31.4708C13.6839 32.2915 14.1368 33.8763 14.1368 36.2252C14.1368 37.9798 13.7971 39.3099 13.1462 40.1872C12.467 41.0645 11.2784 41.489 9.58043 41.489C7.99563 41.489 6.80702 40.923 5.95802 39.7627C5.10901 38.6024 4.65621 36.2535 4.54301 32.6877L0.156494 33.4518C0.382895 38.0081 1.2319 41.0362 2.7318 42.5361C4.20341 44.0644 6.52402 44.8002 9.63703 44.8002Z" fill="white"/>
<path d="M31.5793 44.8285C37.4092 44.8285 40.5222 41.6022 40.8052 33.1688L36.4187 32.4613C36.2772 38.7439 34.3528 41.5456 31.6076 41.5456C29.853 41.5456 28.5795 40.4702 27.7588 38.2911C27.023 36.3667 26.6268 33.3386 26.5419 29.1502H41.0599C41.0882 28.6691 41.1165 28.1314 41.1165 27.5654C41.1165 21.7639 40.5505 17.4905 39.4751 14.6888C38.3714 11.9154 35.7395 10.5004 31.5793 10.5004C27.4758 10.5004 24.8439 11.9154 23.6836 14.7454C22.5516 17.5754 21.9573 21.8771 21.9573 27.7069C21.9573 32.9424 22.5233 37.1025 23.6553 40.1872C24.7873 43.2719 27.4192 44.8285 31.5793 44.8285ZM26.5419 26.1221C26.5985 21.4809 27.023 18.3113 27.7871 16.6132C28.6361 14.7171 29.9096 13.7832 31.5793 13.7832C33.2774 13.7832 34.5226 14.7171 35.315 16.5566C36.0791 18.3113 36.4753 21.5092 36.5036 26.1221H26.5419Z" fill="white"/>
<path d="M59.2573 44.5738H63.1344V25.2165C63.1344 20.6602 62.6533 17.066 61.6345 14.4624C60.644 11.8305 58.0687 10.5004 53.9369 10.5004C47.6543 10.5004 44.9657 13.8681 44.6827 21.7356L49.324 22.3865C49.4655 16.6698 51.2201 13.8398 53.9935 13.8398C55.6066 13.8398 56.7669 14.6322 57.4461 16.217C58.1536 17.7735 58.4932 20.2074 58.4932 23.4902V24.8486H52.8898C49.607 24.8486 47.3713 25.641 46.2109 27.1975C45.0223 28.7823 44.428 31.1878 44.428 34.4989C44.428 37.9515 45.0506 40.5268 46.2675 42.2531C47.5128 43.9795 49.4655 44.8285 52.1257 44.8285C54.8142 44.8285 56.7952 44.2625 58.097 43.0738C58.3517 42.8475 58.5781 42.621 58.7762 42.3663L59.2573 44.5738ZM58.4932 37.8949C58.4932 38.8571 58.0121 39.7344 57.0782 40.4702C56.116 41.2343 54.8991 41.6022 53.3992 41.6022C51.8144 41.6022 50.739 40.923 50.1164 39.5929C49.4938 38.2345 49.1825 36.5365 49.1825 34.4423C49.1825 32.2349 49.5221 30.6218 50.2013 29.5464C50.8805 28.471 52.2389 27.9333 54.2765 27.9333H58.4932V37.8949Z" fill="white"/>
<path d="M79.8642 26.5466H84.4771C84.4771 20.9998 84.1092 16.9528 83.3734 14.3775C82.6376 11.8022 80.8264 10.5287 77.9964 10.5287C75.5909 10.5287 73.6099 11.3211 72.11 12.8776C71.8836 13.1323 71.6855 13.387 71.4874 13.6417L71.3176 10.84H67.0443V44.5738H71.6572V19.7263C71.7138 18.4245 72.11 17.1509 72.8458 15.9057C73.6665 14.5756 74.7985 13.8964 76.2135 13.8964C77.5436 13.8964 78.4775 14.7454 79.0152 16.4434C79.5812 18.1131 79.8642 21.5092 79.8642 26.5466Z" fill="white"/>
<path d="M96.6864 44.8285C100.62 44.8285 103.082 43.3852 104.073 40.4985C105.063 37.6402 105.601 34.7536 105.686 31.8953L101.299 31.1029C101.271 33.9329 100.903 36.3667 100.167 38.4043C99.4598 40.4419 98.2995 41.4607 96.6864 41.4607C95.0733 41.4607 93.8564 40.3853 93.0074 38.2345C92.1867 36.0837 91.7622 32.6028 91.7622 27.7352C91.7622 22.3016 92.1867 18.6226 93.0074 16.7264C93.8281 14.8586 95.045 13.8964 96.6864 13.8964C98.2995 13.8964 99.4598 14.802 100.167 16.5849C100.903 18.3678 101.271 20.9715 101.299 24.3392L105.686 23.6034C105.601 20.1508 105.063 17.0943 104.073 14.4624C103.082 11.8305 100.62 10.5287 96.6864 10.5287C92.5546 10.5287 89.9227 11.9154 88.7907 14.7454C87.6587 17.5754 87.0927 21.9054 87.0927 27.7352C87.0927 33.0273 87.6587 37.1874 88.7907 40.2438C89.9227 43.3003 92.5546 44.8285 96.6864 44.8285Z" fill="white"/>
<path d="M109.494 44.5738H114.107V20.0376C114.249 18.4811 114.673 17.1509 115.437 15.9906C116.343 14.5756 117.475 13.8964 118.862 13.8964C120.305 13.8964 121.324 14.6322 121.946 16.1604C122.569 17.6886 122.909 20.3206 122.909 24.0845V44.5738H127.493V24.0562C127.493 20.0093 127.069 16.7264 126.248 14.236C125.399 11.7456 123.56 10.5004 120.673 10.5004C118.041 10.5004 115.919 11.4626 114.305 13.387C114.221 13.4719 114.164 13.5568 114.107 13.6134V0.142578H109.494V44.5738Z" fill="white"/>
<path d="M140.242 44.8285C144.176 44.8285 146.638 43.3852 147.628 40.4985C148.619 37.6402 149.157 34.7536 149.241 31.8953L144.855 31.1029C144.827 33.9329 144.459 36.3667 143.723 38.4043C143.015 40.4419 141.855 41.4607 140.242 41.4607C138.629 41.4607 137.412 40.3853 136.563 38.2345C135.742 36.0837 135.318 32.6028 135.318 27.7352C135.318 22.3016 135.742 18.6226 136.563 16.7264C137.384 14.8586 138.601 13.8964 140.242 13.8964C141.855 13.8964 143.015 14.802 143.723 16.5849C144.459 18.3678 144.827 20.9715 144.855 24.3392L149.241 23.6034C149.157 20.1508 148.619 17.0943 147.628 14.4624C146.638 11.8305 144.176 10.5287 140.242 10.5287C136.11 10.5287 133.478 11.9154 132.346 14.7454C131.214 17.5754 130.648 21.9054 130.648 27.7352C130.648 33.0273 131.214 37.1874 132.346 40.2438C133.478 43.3003 136.11 44.8285 140.242 44.8285Z" fill="white"/>
<path d="M162.191 44.8002C166.323 44.8002 168.955 43.4701 170.115 40.7532C171.275 38.0647 171.87 33.6782 171.87 27.6503C171.87 21.5941 171.275 17.2358 170.115 14.519C168.955 11.8305 166.323 10.4721 162.191 10.4721C158.087 10.4721 155.456 11.8305 154.267 14.519C153.107 17.2358 152.541 21.5941 152.541 27.6503C152.541 33.6782 153.107 38.0647 154.267 40.7532C155.456 43.4701 158.087 44.8002 162.191 44.8002ZM162.191 41.4607C160.521 41.4607 159.248 40.5551 158.399 38.7439C157.578 36.9327 157.154 33.2537 157.154 27.6503C157.154 22.0752 157.578 18.3678 158.399 16.5566C159.248 14.7171 160.521 13.8115 162.191 13.8115C163.889 13.8115 165.163 14.7171 165.983 16.5566C166.832 18.3678 167.228 22.0752 167.228 27.6503C167.228 33.2537 166.832 36.9327 165.983 38.7439C165.163 40.5551 163.889 41.4607 162.191 41.4607Z" fill="white"/>
<path d="M178.7 44.5738H185.52L189.312 16.6415L193.076 44.5738H199.868L204 10.84H199.246L196.416 41.2909L192.029 10.84H186.539L182.181 41.3192L179.294 10.84H174.54L178.7 44.5738Z" fill="white"/>
</svg>
